<?xml version="1.0" encoding="utf-8" standalone="no"?>
<!DOCTYPE svg PUBLIC "-//W3C//DTD SVG 1.1//EN"
  "http://www.w3.org/Graphics/SVG/1.1/DTD/svg11.dtd">
<svg xmlns:xlink="http://www.w3.org/1999/xlink" width="25.7pt" height="17.02pt" viewBox="0 0 25.7 17.02" xmlns="http://www.w3.org/2000/svg" version="1.1">
 <metadata>
  <rdf:RDF xmlns:dc="http://purl.org/dc/elements/1.1/" xmlns:cc="http://creativecommons.org/ns#" xmlns:rdf="http://www.w3.org/1999/02/22-rdf-syntax-ns#">
   <cc:Work>
    <dc:type rdf:resource="http://purl.org/dc/dcmitype/StillImage"/>
    <dc:date>2025-09-16T01:07:24.325047</dc:date>
    <dc:format>image/svg+xml</dc:format>
    <dc:creator>
     <cc:Agent>
      <dc:title>Matplotlib v3.10.6, https://matplotlib.org/</dc:title>
     </cc:Agent>
    </dc:creator>
   </cc:Work>
  </rdf:RDF>
 </metadata>
 <defs>
  <style type="text/css">*{stroke-linejoin: round; stroke-linecap: butt}</style>
 </defs>
 <g id="figure_1">
  <g id="patch_1">
   <path d="M 0 17.02 
L 25.7 17.02 
L 25.7 0 
L 0 0 
z
" style="fill: #ffffff"/>
  </g>
  <g id="text_1">
   <!-- $|\mathcal{W}|$ -->
   <g transform="translate(1.44 12.22) scale(0.14 -0.14)">
    <defs>
     <path id="DejaVuSans-7c" d="M 1344 4891 
L 1344 -1509 
L 813 -1509 
L 813 4891 
L 1344 4891 
z
" transform="scale(0.015625)"/>
     <path id="STIXNonUnicode-Italic-e243" d="M 4634 736 
L 4672 717 
Q 4742 794 4931 1008 
Q 5120 1222 5248 1369 
Q 5376 1517 5545 1757 
Q 5715 1997 5837 2234 
Q 6131 2803 6131 3245 
Q 6131 3936 5741 3936 
Q 5696 3936 5661 3885 
Q 5626 3834 5606 3776 
Q 5587 3718 5529 3667 
Q 5472 3616 5382 3616 
Q 5229 3616 5145 3715 
Q 5062 3814 5062 3962 
Q 5062 4173 5209 4278 
Q 5357 4384 5594 4384 
Q 5965 4384 6176 4073 
Q 6387 3763 6387 3290 
Q 6387 2906 6236 2506 
Q 6086 2106 5814 1718 
Q 5542 1331 5289 1027 
Q 5037 723 4697 352 
Q 4358 -19 4211 -205 
L 4045 -205 
L 4045 230 
Q 4045 1306 3936 2099 
Q 3827 2893 3475 3373 
L 3430 3373 
L 1363 -205 
L 1171 -205 
Q 1459 1581 1459 2624 
Q 1459 4006 602 4006 
Q 448 4006 307 3891 
L 211 4013 
Q 486 4237 915 4237 
Q 1184 4237 1389 4157 
Q 1594 4077 1722 3923 
Q 1850 3770 1933 3590 
Q 2016 3411 2054 3155 
Q 2093 2899 2105 2684 
Q 2118 2470 2118 2182 
Q 2118 1920 2099 1658 
L 2138 1658 
L 3398 3846 
L 3686 4160 
Q 4077 3738 4365 2950 
Q 4653 2163 4653 1395 
Q 4653 966 4634 736 
z
" transform="scale(0.015625)"/>
    </defs>
    <use xlink:href="#DejaVuSans-7c" transform="translate(0 0.578125)"/>
    <use xlink:href="#STIXNonUnicode-Italic-e243" transform="translate(33.691406 0.578125)"/>
    <use xlink:href="#DejaVuSans-7c" transform="translate(129.291397 0.578125)"/>
   </g>
  </g>
 </g>
</svg>
